<svg width="400" height="420" viewBox="0 0 400 420" fill="none" xmlns="http://www.w3.org/2000/svg">
<mask id="mask0_168_60" style="mask-type:luminance" maskUnits="userSpaceOnUse" x="0" y="0" width="400" height="420">
<path d="M0 0H400V419.825H0V0Z" fill="white"/>
</mask>
<g mask="url(#mask0_168_60)">
<path fill-rule="evenodd" clip-rule="evenodd" d="M131.507 46.6166C172.573 7.76048 237.363 9.55244 276.219 50.619L362.71 142.03C381.37 161.751 391.431 188.077 390.68 215.216C389.93 242.355 378.429 268.084 358.708 286.743L267.297 373.234C226.23 412.09 161.44 410.298 122.584 369.232L36.0926 277.82C-2.76344 236.754 -0.971481 171.964 40.0951 133.108L131.507 46.6166Z" fill="#2217BC"/>
<path fill-rule="evenodd" clip-rule="evenodd" d="M331.467 108.455L90.9418 335.239L68.2217 311.226L309.309 85.1311L331.467 108.455Z" fill="white"/>
<path fill-rule="evenodd" clip-rule="evenodd" d="M98.5424 78.134L325.326 318.659L301.314 341.379L75.2188 100.291L98.5424 78.134Z" fill="white"/>
</g>
</svg>
